<?xml version="1.0" encoding="UTF-8" standalone="no"?>
<!-- Generator: Adobe Illustrator 18.1.0, SVG Export Plug-In . SVG Version: 6.00 Build 0)  -->

<svg
   xmlns:dc="http://purl.org/dc/elements/1.1/"
   xmlns:cc="http://creativecommons.org/ns#"
   xmlns:rdf="http://www.w3.org/1999/02/22-rdf-syntax-ns#"
   xmlns:svg="http://www.w3.org/2000/svg"
   xmlns="http://www.w3.org/2000/svg"
   xmlns:sodipodi="http://sodipodi.sourceforge.net/DTD/sodipodi-0.dtd"
   xmlns:inkscape="http://www.inkscape.org/namespaces/inkscape"
   version="1.0"
   id="Layer_1"
   x="0px"
   y="0px"
   viewBox="0 0 150 150"
   enable-background="new 0 0 150 150"
   xml:space="preserve"
   inkscape:version="0.91 r13725"
   sodipodi:docname="symbol.svg"
   inkscape:export-filename="D:\Windows\Repositories\GitHub\meta\logo\g3.png"
   inkscape:export-xdpi="720"
   inkscape:export-ydpi="720"><metadata
     id="metadata57"><rdf:RDF><cc:Work
         rdf:about=""><dc:format>image/svg+xml</dc:format><dc:type
           rdf:resource="http://purl.org/dc/dcmitype/StillImage" /><dc:title></dc:title></cc:Work></rdf:RDF></metadata><defs
     id="defs55" /><sodipodi:namedview
     pagecolor="#ffffff"
     bordercolor="#666666"
     borderopacity="1"
     objecttolerance="10"
     gridtolerance="10"
     guidetolerance="10"
     inkscape:pageopacity="0"
     inkscape:pageshadow="2"
     inkscape:window-width="2048"
     inkscape:window-height="1089"
     id="namedview53"
     showgrid="false"
     inkscape:zoom="4.4500587"
     inkscape:cx="47.727184"
     inkscape:cy="68.964726"
     inkscape:window-x="-8"
     inkscape:window-y="-8"
     inkscape:window-maximized="1"
     inkscape:current-layer="Layer_1" /><g
     id="g3"
     style="fill:#ffffff"><path
       fill="#4CAC91"
       d="M136,57.4c-2-7.5-5.3-14.5-9.6-20.6c-1.7-0.1-3.5-0.2-5.2-0.4c-1.5-0.1-3.1-0.2-4.7-0.3   c-0.4,1.9-1.6,3.6-3.4,4.7c2.2,6.9,4.7,15.5,7.1,24.4C125.5,62.6,130.8,60,136,57.4z"
       id="path5"
       style="fill:#ffffff" /><path
       fill="#4CAC91"
       d="M130,93.8c0.9,0,1.9-0.1,2.8-0.1c1.2-1.5,2.5-3.1,3.7-4.7c1.1-4.7,1.7-9.7,1.7-14.7   c0-5.3-0.6-10.4-1.8-15.3c-5.3,2.6-10.5,5.2-15.8,7.7c2.4,9,4.5,18.2,6.1,26.1C127.8,92.7,129,93.1,130,93.8z"
       id="path7"
       style="fill:#ffffff" /><path
       fill="#4CAC91"
       d="M115.8,31c0.6,1.2,0.9,2.4,0.9,3.7c1.5,0.1,3.1,0.2,4.6,0.3c1.3,0.1,2.7,0.2,4,0.3c-2.4-3.2-5.1-6.2-8-8.9   c-0.9,1-1.8,2-2.6,3C115.1,29.9,115.5,30.4,115.8,31z"
       id="path9"
       style="fill:#ffffff" /><path
       fill="#4CAC91"
       d="M75.5,15.2C72.2,26.8,68.6,38.5,65,50.3c0.3,1.2,0.7,2.3,1,3.4c2,6.6,4.4,13.5,6.9,20.6   c5.6-6.3,10.8-12.8,15.9-19.2c4.5-5.7,9.2-11.5,14.1-17.1c0-0.1-0.1-0.1-0.1-0.2c-1.4-2.5-1.1-5.5,0.5-7.7   C94.9,25,85.1,19.8,75.5,15.2z"
       id="path11"
       style="fill:#ffffff" /><path
       fill="#4CAC91"
       d="M108.5,27.1c1.8-0.2,3.6,0.3,5.1,1.3c0.8-1,1.7-2,2.6-3c-3-2.6-6.2-5-9.6-7.1   C107.4,21.5,108.1,24.4,108.5,27.1z"
       id="path13"
       style="fill:#ffffff" /><path
       fill="#4CAC91"
       d="M134.8,93.5c0.2,0,0.4,0,0.5,0c0.1-0.3,0.2-0.7,0.3-1C135.3,92.8,135,93.1,134.8,93.5z"
       id="path15"
       style="fill:#ffffff" /><path
       fill="#4CAC91"
       d="M83.6,105.6c3.3,10.6,6,21.1,7.5,31.2c3.2-0.9,6.4-2.1,9.4-3.5c3.2-4.6,6.5-9.1,9.8-13.5   C101.4,114.6,92.4,109.8,83.6,105.6z"
       id="path17"
       style="fill:#ffffff" /><path
       fill="#4CAC91"
       d="M77.5,94.1c0.3,0,0.5,0,0.8,0c-0.8-2.3-1.6-4.6-2.4-6.9c-4,1.8-7.9,3.6-11.9,5.3c0.1,0.6,0.2,1.1,0.2,1.7   C68.3,94.3,72.8,94.2,77.5,94.1z"
       id="path19"
       style="fill:#ffffff" /><path
       fill="#4CAC91"
       d="M133.5,95c-0.4,0.5-0.7,0.9-1.1,1.4c0,0,0,0.1,0.1,0.1c0.4,0.8,0.7,1.7,0.8,2.5c0.6-1.3,1.1-2.7,1.5-4.1   C134.4,95,134,95,133.5,95z"
       id="path21"
       style="fill:#ffffff" /><path
       fill="#4CAC91"
       d="M71.8,75.6c-2.6-7.4-5.1-14.6-7.1-21.4c-0.1-0.4-0.3-0.9-0.4-1.3c-1.1,3.7-2.3,7.5-3.4,11.2   c-1.7,5.5-3.3,10.9-4.9,16.2c0.2,1.5,0.3,2.9,0.5,4.4c1.6,0.4,3.1,1.1,4.3,2.2C64.6,83.2,68.3,79.5,71.8,75.6z"
       id="path23"
       style="fill:#ffffff" /><path
       fill="#4CAC91"
       d="M129.5,106.5c-2.3,1.2-5,1.1-7.1-0.1c-1.3,1.6-2.5,3.3-3.8,5c-1.9,2.5-3.9,5.1-5.9,7.6   c1.6,0.9,3.2,1.9,4.8,2.8c4.8-4.5,8.9-9.7,12.2-15.5C129.6,106.4,129.6,106.4,129.5,106.5z"
       id="path25"
       style="fill:#ffffff" /><path
       fill="#4CAC91"
       d="M76.8,85.2C90.6,79,104.5,72.6,118.4,66c-2.4-8.9-4.9-17.6-7.1-24.5c-2.7,0.8-5.7-0.1-7.6-2.2   C99,44.7,94.5,50.4,90,56c-5.3,6.7-10.7,13.4-16.5,19.9c0.4,1.2,0.8,2.4,1.3,3.6C75.4,81.4,76.1,83.3,76.8,85.2z"
       id="path27"
       style="fill:#ffffff" /><path
       fill="#4CAC91"
       d="M54.9,84.3c0-0.2-0.1-0.4-0.1-0.6c-0.1,0.2-0.1,0.4-0.2,0.6C54.8,84.3,54.9,84.3,54.9,84.3z"
       id="path29"
       style="fill:#ffffff" /><path
       fill="#4CAC91"
       d="M55.4,75.3c1.2-3.9,2.4-7.9,3.6-11.9c1.4-4.7,2.9-9.3,4.3-14c-0.8-2.8-1.6-5.7-2.5-8.8   c-2.7-9.7-5.6-20.1-8.6-28.2c-1.5,0.5-2.9,1-4.3,1.6c2.3,15.2,4.1,31.8,5.9,48C54.4,66.5,54.9,70.9,55.4,75.3z"
       id="path31"
       style="fill:#ffffff" /><path
       fill="#4CAC91"
       d="M119.3,96.8c0.7-1.4,1.7-2.6,3.2-3.4c0.7-0.4,1.4-0.6,2.2-0.8c-1.5-7.6-3.6-16.5-5.9-25.3   C104.9,74,91,80.4,77.2,86.6c0.9,2.5,1.7,5,2.6,7.5C93.4,93.8,108,93.7,119.3,96.8z"
       id="path33"
       style="fill:#ffffff" /><path
       fill="#4CAC91"
       d="M75.9,121.9c-5.4-6.6-10.9-13.3-14.6-20.4c-0.7,0.7-1.5,1.3-2.4,1.8c-5,2.6-11.1,0.8-13.7-4.2   c-2.6-4.9-0.8-11.1,4.2-13.7c1.1-0.6,2.2-0.9,3.3-1.1c0.6-1.8,1.1-3.7,1.7-5.5c-0.6-5.5-1.3-11.1-1.9-16.6   c-1.8-16-3.6-32.5-5.9-47.6C23.8,24.8,7.9,47.6,7.9,74.2c0,36,29.2,65.2,65.2,65.2c5.1,0,10-0.6,14.8-1.7   C84.3,132.2,80.1,127,75.9,121.9z"
       id="path35"
       style="fill:#ffffff" /><path
       fill="#4CAC91"
       d="M89.3,137.3c0.1,0,0.2-0.1,0.3-0.1c-1.5-10.5-4.4-21.4-7.9-32.4c-6.1-2.9-12.2-5.5-18-7.6   c-0.3,1.1-0.8,2.2-1.5,3.2c3.7,7.1,9.3,14,14.7,20.6C81.4,126.3,85.8,131.7,89.3,137.3z"
       id="path37"
       style="fill:#ffffff" /><path
       fill="#4CAC91"
       d="M111.5,118.2c2-2.6,4-5.2,6-7.8c1.3-1.6,2.5-3.3,3.7-4.9c-0.7-0.6-1.3-1.3-1.7-2.1   c-0.9-1.7-1.1-3.5-0.6-5.2c-11-2.9-25.3-2.9-38.5-2.7c0.8,2.5,1.7,5.1,2.5,7.6C92.2,107.5,101.9,112.7,111.5,118.2z"
       id="path39"
       style="fill:#ffffff" /><path
       fill="#4CAC91"
       d="M111.5,120.5c-2.8,3.8-5.7,7.6-8.4,11.5c4.6-2.4,8.9-5.4,12.8-8.8C114.5,122.3,113,121.4,111.5,120.5z"
       id="path41"
       style="fill:#ffffff" /><path
       fill="#4CAC91"
       d="M78.8,95.5c-0.4,0-0.8,0-1.3,0c-4.3,0.1-8.3,0.2-12.1,0.1c5.1,1.9,10.3,4.1,15.6,6.6   C80.3,100,79.5,97.8,78.8,95.5z"
       id="path43"
       style="fill:#ffffff" /><path
       fill="#4CAC91"
       d="M104.3,29.1c0.5-0.4,1-0.8,1.6-1.2c0.4-0.2,0.8-0.4,1.2-0.5c-0.5-3-1.2-6.4-2.3-10.1   c-8.3-4.6-17.7-7.5-27.7-8.1c-0.4,1.5-0.9,3.1-1.3,4.6C85.7,18.5,95.7,23.8,104.3,29.1z"
       id="path45"
       style="fill:#ffffff" /><path
       fill="#4CAC91"
       d="M66.1,9.4c2.6,1.1,5.3,2.3,7.9,3.6c0.4-1.3,0.7-2.6,1.1-3.9c-0.7,0-1.4-0.1-2.1-0.1   C70.7,9,68.4,9.2,66.1,9.4z"
       id="path47"
       style="fill:#ffffff" /><path
       fill="#4CAC91"
       d="M64.1,46.9c3.3-10.9,6.6-21.8,9.6-32.5c-3.5-1.6-7-3.2-10.4-4.6C60,10.3,56.8,11,53.6,12   c3,8.1,5.9,18.6,8.6,28.2C62.8,42.5,63.5,44.7,64.1,46.9z"
       id="path49"
       style="fill:#ffffff" /><path
       fill="#4CAC91"
       d="M73.4,80c-0.3-1-0.7-1.9-1-2.8c-3.4,3.7-6.9,7.3-10.6,10.7c0.5,0.6,0.9,1.2,1.3,1.8c0.3,0.5,0.5,1,0.6,1.5   c3.9-1.8,7.8-3.5,11.8-5.3C74.7,83.9,74.1,81.9,73.4,80z"
       id="path51"
       style="fill:#ffffff" /></g></svg>